<?xml version="1.0" encoding="UTF-8" standalone="no"?>
<!DOCTYPE svg PUBLIC "-//W3C//DTD SVG 1.1//EN"
 "http://www.w3.org/Graphics/SVG/1.1/DTD/svg11.dtd">
<!-- Generated by graphviz version 2.38.0 (20140413.2041)
 -->
<!-- Title: controllers_diagram Pages: 1 -->
<svg width="1124pt" height="1332pt"
 viewBox="0.00 0.00 1123.91 1332.42" xmlns="http://www.w3.org/2000/svg" xmlns:xlink="http://www.w3.org/1999/xlink">
<g id="graph0" class="graph" transform="scale(1 1) rotate(0) translate(413.91 672.847)">
<title>controllers_diagram</title>
<polygon fill="none" stroke="none" points="-413.91,659.576 -413.91,-672.847 710,-672.847 710,659.576 -413.91,659.576"/>
<!-- _diagram_info -->
<g id="node1" class="node"><title>_diagram_info</title>
<text text-anchor="start" x="500" y="428.4" font-family="Times,serif" font-size="13.00">Controllers diagram</text>
<text text-anchor="start" x="500" y="442.4" font-family="Times,serif" font-size="13.00">Date: Jun 16 2016 &#45; 18:35</text>
<text text-anchor="start" x="500" y="456.4" font-family="Times,serif" font-size="13.00">Migration version: 20160518101051</text>
<text text-anchor="start" x="500" y="470.4" font-family="Times,serif" font-size="13.00">Generated by RailRoady 1.4.2</text>
<text text-anchor="start" x="500" y="484.4" font-family="Times,serif" font-size="13.00">http://railroady.prestonlee.com</text>
</g>
<!-- UsersController -->
<g id="node2" class="node"><title>UsersController</title>
<path fill="none" stroke="black" d="M-397.91,-20.1208C-397.91,-20.1208 -318.91,-20.1208 -318.91,-20.1208 -312.91,-20.1208 -306.91,-26.1208 -306.91,-32.1208 -306.91,-32.1208 -306.91,-221.121 -306.91,-221.121 -306.91,-227.121 -312.91,-233.121 -318.91,-233.121 -318.91,-233.121 -397.91,-233.121 -397.91,-233.121 -403.91,-233.121 -409.91,-227.121 -409.91,-221.121 -409.91,-221.121 -409.91,-32.1208 -409.91,-32.1208 -409.91,-26.1208 -403.91,-20.1208 -397.91,-20.1208"/>
<text text-anchor="middle" x="-358.41" y="-217.921" font-family="Times,serif" font-size="14.00">UsersController</text>
<polyline fill="none" stroke="black" points="-409.91,-210.121 -306.91,-210.121 "/>
<text text-anchor="start" x="-401.91" y="-194.921" font-family="Times,serif" font-size="14.00">create</text>
<text text-anchor="start" x="-401.91" y="-179.921" font-family="Times,serif" font-size="14.00">destroy</text>
<text text-anchor="start" x="-401.91" y="-164.921" font-family="Times,serif" font-size="14.00">edit</text>
<text text-anchor="start" x="-401.91" y="-149.921" font-family="Times,serif" font-size="14.00">index</text>
<text text-anchor="start" x="-401.91" y="-134.921" font-family="Times,serif" font-size="14.00">new</text>
<text text-anchor="start" x="-401.91" y="-119.921" font-family="Times,serif" font-size="14.00">set_locale</text>
<text text-anchor="start" x="-401.91" y="-104.921" font-family="Times,serif" font-size="14.00">update</text>
<polyline fill="none" stroke="black" points="-409.91,-97.1208 -306.91,-97.1208 "/>
<polyline fill="none" stroke="black" points="-409.91,-73.1208 -306.91,-73.1208 "/>
<text text-anchor="start" x="-401.91" y="-57.9208" font-family="Times,serif" font-size="14.00">_layout</text>
<text text-anchor="start" x="-401.91" y="-42.9208" font-family="Times,serif" font-size="14.00">set_user</text>
<text text-anchor="start" x="-401.91" y="-27.9208" font-family="Times,serif" font-size="14.00">user_params</text>
</g>
<!-- UserSessionsController -->
<g id="node3" class="node"><title>UserSessionsController</title>
<path fill="none" stroke="black" d="M274.797,-197.733C274.797,-197.733 394.797,-197.733 394.797,-197.733 400.797,-197.733 406.797,-203.733 406.797,-209.733 406.797,-209.733 406.797,-323.733 406.797,-323.733 406.797,-329.733 400.797,-335.733 394.797,-335.733 394.797,-335.733 274.797,-335.733 274.797,-335.733 268.797,-335.733 262.797,-329.733 262.797,-323.733 262.797,-323.733 262.797,-209.733 262.797,-209.733 262.797,-203.733 268.797,-197.733 274.797,-197.733"/>
<text text-anchor="middle" x="334.797" y="-320.533" font-family="Times,serif" font-size="14.00">UserSessionsController</text>
<polyline fill="none" stroke="black" points="262.797,-312.733 406.797,-312.733 "/>
<text text-anchor="start" x="270.797" y="-297.533" font-family="Times,serif" font-size="14.00">create</text>
<text text-anchor="start" x="270.797" y="-282.533" font-family="Times,serif" font-size="14.00">destroy</text>
<text text-anchor="start" x="270.797" y="-267.533" font-family="Times,serif" font-size="14.00">new</text>
<text text-anchor="start" x="270.797" y="-252.533" font-family="Times,serif" font-size="14.00">set_locale</text>
<polyline fill="none" stroke="black" points="262.797,-244.733 406.797,-244.733 "/>
<polyline fill="none" stroke="black" points="262.797,-220.733 406.797,-220.733 "/>
<text text-anchor="start" x="270.797" y="-205.533" font-family="Times,serif" font-size="14.00">_layout</text>
</g>
<!-- FilmsController -->
<g id="node4" class="node"><title>FilmsController</title>
<path fill="none" stroke="black" d="M-313.606,585.606C-313.606,585.606 -233.606,585.606 -233.606,585.606 -227.606,585.606 -221.606,579.606 -221.606,573.606 -221.606,573.606 -221.606,354.606 -221.606,354.606 -221.606,348.606 -227.606,342.606 -233.606,342.606 -233.606,342.606 -313.606,342.606 -313.606,342.606 -319.606,342.606 -325.606,348.606 -325.606,354.606 -325.606,354.606 -325.606,573.606 -325.606,573.606 -325.606,579.606 -319.606,585.606 -313.606,585.606"/>
<text text-anchor="middle" x="-273.606" y="357.806" font-family="Times,serif" font-size="14.00">FilmsController</text>
<polyline fill="none" stroke="black" points="-325.606,365.606 -221.606,365.606 "/>
<text text-anchor="start" x="-317.606" y="380.806" font-family="Times,serif" font-size="14.00">create</text>
<text text-anchor="start" x="-317.606" y="395.806" font-family="Times,serif" font-size="14.00">destroy</text>
<text text-anchor="start" x="-317.606" y="410.806" font-family="Times,serif" font-size="14.00">ecranvillage</text>
<text text-anchor="start" x="-317.606" y="425.806" font-family="Times,serif" font-size="14.00">edit</text>
<text text-anchor="start" x="-317.606" y="440.806" font-family="Times,serif" font-size="14.00">index</text>
<text text-anchor="start" x="-317.606" y="455.806" font-family="Times,serif" font-size="14.00">new</text>
<text text-anchor="start" x="-317.606" y="470.806" font-family="Times,serif" font-size="14.00">set_locale</text>
<text text-anchor="start" x="-317.606" y="485.806" font-family="Times,serif" font-size="14.00">show</text>
<text text-anchor="start" x="-317.606" y="500.806" font-family="Times,serif" font-size="14.00">update</text>
<polyline fill="none" stroke="black" points="-325.606,508.606 -221.606,508.606 "/>
<polyline fill="none" stroke="black" points="-325.606,532.606 -221.606,532.606 "/>
<text text-anchor="start" x="-317.606" y="547.806" font-family="Times,serif" font-size="14.00">_layout</text>
<text text-anchor="start" x="-317.606" y="562.806" font-family="Times,serif" font-size="14.00">film_params</text>
<text text-anchor="start" x="-317.606" y="577.806" font-family="Times,serif" font-size="14.00">set_film</text>
</g>
<!-- ApplicationController -->
<g id="node5" class="node"><title>ApplicationController</title>
<path fill="none" stroke="black" d="M-64.0517,-99.3466C-64.0517,-99.3466 47.9483,-99.3466 47.9483,-99.3466 53.9483,-99.3466 59.9483,-105.347 59.9483,-111.347 59.9483,-111.347 59.9483,-210.347 59.9483,-210.347 59.9483,-216.347 53.9483,-222.347 47.9483,-222.347 47.9483,-222.347 -64.0517,-222.347 -64.0517,-222.347 -70.0517,-222.347 -76.0517,-216.347 -76.0517,-210.347 -76.0517,-210.347 -76.0517,-111.347 -76.0517,-111.347 -76.0517,-105.347 -70.0517,-99.3466 -64.0517,-99.3466"/>
<text text-anchor="middle" x="-8.0517" y="-207.147" font-family="Times,serif" font-size="14.00">ApplicationController</text>
<polyline fill="none" stroke="black" points="-76.0517,-199.347 59.9483,-199.347 "/>
<text text-anchor="start" x="-68.0517" y="-184.147" font-family="Times,serif" font-size="14.00">current_ability</text>
<text text-anchor="start" x="-68.0517" y="-169.147" font-family="Times,serif" font-size="14.00">set_locale</text>
<polyline fill="none" stroke="black" points="-76.0517,-161.347 59.9483,-161.347 "/>
<polyline fill="none" stroke="black" points="-76.0517,-137.347 59.9483,-137.347 "/>
<text text-anchor="start" x="-68.0517" y="-122.147" font-family="Times,serif" font-size="14.00">_layout</text>
<text text-anchor="start" x="-68.0517" y="-107.147" font-family="Times,serif" font-size="14.00">not_authenticated</text>
</g>
<!-- ApplicationController&#45;&gt;UsersController -->
<g id="edge1" class="edge"><title>ApplicationController&#45;&gt;UsersController</title>
<path fill="none" stroke="black" d="M-76.436,-154.166C-143.945,-147.571 -245.672,-137.634 -306.709,-131.671"/>
</g>
<!-- ApplicationController&#45;&gt;UserSessionsController -->
<g id="edge2" class="edge"><title>ApplicationController&#45;&gt;UserSessionsController</title>
<path fill="none" stroke="black" d="M60.0941,-181.893C118.679,-199.987 202.922,-226.004 262.641,-244.448"/>
</g>
<!-- ApplicationController&#45;&gt;FilmsController -->
<g id="edge3" class="edge"><title>ApplicationController&#45;&gt;FilmsController</title>
<path fill="none" stroke="black" d="M-30.292,-99.1821C-57.6607,-24.3637 -106.327,105.294 -153.546,214.24 -174.599,262.814 -199.726,315.778 -221.54,360.391"/>
</g>
<!-- VillagesController -->
<g id="node6" class="node"><title>VillagesController</title>
<path fill="none" stroke="black" d="M139.948,-440.347C139.948,-440.347 232.948,-440.347 232.948,-440.347 238.948,-440.347 244.948,-446.347 244.948,-452.347 244.948,-452.347 244.948,-656.347 244.948,-656.347 244.948,-662.347 238.948,-668.347 232.948,-668.347 232.948,-668.347 139.948,-668.347 139.948,-668.347 133.948,-668.347 127.948,-662.347 127.948,-656.347 127.948,-656.347 127.948,-452.347 127.948,-452.347 127.948,-446.347 133.948,-440.347 139.948,-440.347"/>
<text text-anchor="middle" x="186.448" y="-653.147" font-family="Times,serif" font-size="14.00">VillagesController</text>
<polyline fill="none" stroke="black" points="127.948,-645.347 244.948,-645.347 "/>
<text text-anchor="start" x="135.948" y="-630.147" font-family="Times,serif" font-size="14.00">create</text>
<text text-anchor="start" x="135.948" y="-615.147" font-family="Times,serif" font-size="14.00">destroy</text>
<text text-anchor="start" x="135.948" y="-600.147" font-family="Times,serif" font-size="14.00">edit</text>
<text text-anchor="start" x="135.948" y="-585.147" font-family="Times,serif" font-size="14.00">index</text>
<text text-anchor="start" x="135.948" y="-570.147" font-family="Times,serif" font-size="14.00">new</text>
<text text-anchor="start" x="135.948" y="-555.147" font-family="Times,serif" font-size="14.00">set_locale</text>
<text text-anchor="start" x="135.948" y="-540.147" font-family="Times,serif" font-size="14.00">show</text>
<text text-anchor="start" x="135.948" y="-525.147" font-family="Times,serif" font-size="14.00">update</text>
<polyline fill="none" stroke="black" points="127.948,-517.347 244.948,-517.347 "/>
<polyline fill="none" stroke="black" points="127.948,-493.347 244.948,-493.347 "/>
<text text-anchor="start" x="135.948" y="-478.147" font-family="Times,serif" font-size="14.00">_layout</text>
<text text-anchor="start" x="135.948" y="-463.147" font-family="Times,serif" font-size="14.00">set_village</text>
<text text-anchor="start" x="135.948" y="-448.147" font-family="Times,serif" font-size="14.00">village_params</text>
</g>
<!-- ApplicationController&#45;&gt;VillagesController -->
<g id="edge4" class="edge"><title>ApplicationController&#45;&gt;VillagesController</title>
<path fill="none" stroke="black" d="M22.5529,-222.764C51.2771,-280.877 94.9475,-369.228 129.989,-440.121"/>
</g>
<!-- SeancesController -->
<g id="node7" class="node"><title>SeancesController</title>
<path fill="none" stroke="black" d="M-328.955,-359.347C-328.955,-359.347 -236.955,-359.347 -236.955,-359.347 -230.955,-359.347 -224.955,-365.347 -224.955,-371.347 -224.955,-371.347 -224.955,-650.347 -224.955,-650.347 -224.955,-656.347 -230.955,-662.347 -236.955,-662.347 -236.955,-662.347 -328.955,-662.347 -328.955,-662.347 -334.955,-662.347 -340.955,-656.347 -340.955,-650.347 -340.955,-650.347 -340.955,-371.347 -340.955,-371.347 -340.955,-365.347 -334.955,-359.347 -328.955,-359.347"/>
<text text-anchor="middle" x="-282.955" y="-647.147" font-family="Times,serif" font-size="14.00">SeancesController</text>
<polyline fill="none" stroke="black" points="-340.955,-639.347 -224.955,-639.347 "/>
<text text-anchor="start" x="-332.955" y="-624.147" font-family="Times,serif" font-size="14.00">a_completer</text>
<text text-anchor="start" x="-332.955" y="-609.147" font-family="Times,serif" font-size="14.00">calendrier</text>
<text text-anchor="start" x="-332.955" y="-594.147" font-family="Times,serif" font-size="14.00">create</text>
<text text-anchor="start" x="-332.955" y="-579.147" font-family="Times,serif" font-size="14.00">destroy</text>
<text text-anchor="start" x="-332.955" y="-564.147" font-family="Times,serif" font-size="14.00">edit</text>
<text text-anchor="start" x="-332.955" y="-549.147" font-family="Times,serif" font-size="14.00">entrees</text>
<text text-anchor="start" x="-332.955" y="-534.147" font-family="Times,serif" font-size="14.00">index</text>
<text text-anchor="start" x="-332.955" y="-519.147" font-family="Times,serif" font-size="14.00">mes_seances</text>
<text text-anchor="start" x="-332.955" y="-504.147" font-family="Times,serif" font-size="14.00">new</text>
<text text-anchor="start" x="-332.955" y="-489.147" font-family="Times,serif" font-size="14.00">seances_passees</text>
<text text-anchor="start" x="-332.955" y="-474.147" font-family="Times,serif" font-size="14.00">set_locale</text>
<text text-anchor="start" x="-332.955" y="-459.147" font-family="Times,serif" font-size="14.00">show</text>
<text text-anchor="start" x="-332.955" y="-444.147" font-family="Times,serif" font-size="14.00">update</text>
<polyline fill="none" stroke="black" points="-340.955,-436.347 -224.955,-436.347 "/>
<polyline fill="none" stroke="black" points="-340.955,-412.347 -224.955,-412.347 "/>
<text text-anchor="start" x="-332.955" y="-397.147" font-family="Times,serif" font-size="14.00">_layout</text>
<text text-anchor="start" x="-332.955" y="-382.147" font-family="Times,serif" font-size="14.00">seance_params</text>
<text text-anchor="start" x="-332.955" y="-367.147" font-family="Times,serif" font-size="14.00">set_seance</text>
</g>
<!-- ApplicationController&#45;&gt;SeancesController -->
<g id="edge5" class="edge"><title>ApplicationController&#45;&gt;SeancesController</title>
<path fill="none" stroke="black" d="M-56.5662,-222.614C-103.579,-282.469 -174.917,-373.296 -224.917,-436.954"/>
</g>
<!-- PublicController -->
<g id="node8" class="node"><title>PublicController</title>
<path fill="none" stroke="black" d="M-251.746,211.04C-251.746,211.04 -168.746,211.04 -168.746,211.04 -162.746,211.04 -156.746,205.04 -156.746,199.04 -156.746,199.04 -156.746,100.04 -156.746,100.04 -156.746,94.0404 -162.746,88.0404 -168.746,88.0404 -168.746,88.0404 -251.746,88.0404 -251.746,88.0404 -257.746,88.0404 -263.746,94.0404 -263.746,100.04 -263.746,100.04 -263.746,199.04 -263.746,199.04 -263.746,205.04 -257.746,211.04 -251.746,211.04"/>
<text text-anchor="middle" x="-210.246" y="103.24" font-family="Times,serif" font-size="14.00">PublicController</text>
<polyline fill="none" stroke="black" points="-263.746,111.04 -156.746,111.04 "/>
<text text-anchor="start" x="-255.746" y="126.24" font-family="Times,serif" font-size="14.00">aide</text>
<text text-anchor="start" x="-255.746" y="141.24" font-family="Times,serif" font-size="14.00">bienvenue</text>
<text text-anchor="start" x="-255.746" y="156.24" font-family="Times,serif" font-size="14.00">set_locale</text>
<polyline fill="none" stroke="black" points="-263.746,164.04 -156.746,164.04 "/>
<polyline fill="none" stroke="black" points="-263.746,188.04 -156.746,188.04 "/>
<text text-anchor="start" x="-255.746" y="203.24" font-family="Times,serif" font-size="14.00">_layout</text>
</g>
<!-- ApplicationController&#45;&gt;PublicController -->
<g id="edge6" class="edge"><title>ApplicationController&#45;&gt;PublicController</title>
<path fill="none" stroke="black" d="M-48.2405,-99.153C-83.5971,-44.8775 -134.799,33.7229 -170.133,87.9636"/>
</g>
<!-- RailsAdmin::ApplicationController -->
<g id="node10" class="node"><title>RailsAdmin::ApplicationController</title>
<path fill="none" stroke="black" d="M181.332,224.814C181.332,224.814 366.332,224.814 366.332,224.814 372.332,224.814 378.332,218.814 378.332,212.814 378.332,212.814 378.332,-36.1864 378.332,-36.1864 378.332,-42.1864 372.332,-48.1864 366.332,-48.1864 366.332,-48.1864 181.332,-48.1864 181.332,-48.1864 175.332,-48.1864 169.332,-42.1864 169.332,-36.1864 169.332,-36.1864 169.332,212.814 169.332,212.814 169.332,218.814 175.332,224.814 181.332,224.814"/>
<text text-anchor="middle" x="273.832" y="-32.9864" font-family="Times,serif" font-size="14.00">RailsAdmin::ApplicationController</text>
<polyline fill="none" stroke="black" points="169.332,-25.1864 378.332,-25.1864 "/>
<text text-anchor="start" x="177.332" y="-9.98643" font-family="Times,serif" font-size="14.00">_current_user</text>
<text text-anchor="start" x="177.332" y="5.01357" font-family="Times,serif" font-size="14.00">abstract_model</text>
<text text-anchor="start" x="177.332" y="20.0136" font-family="Times,serif" font-size="14.00">authorization_adapter</text>
<text text-anchor="start" x="177.332" y="35.0136" font-family="Times,serif" font-size="14.00">get_model</text>
<text text-anchor="start" x="177.332" y="50.0136" font-family="Times,serif" font-size="14.00">get_object</text>
<text text-anchor="start" x="177.332" y="65.0136" font-family="Times,serif" font-size="14.00">model_config</text>
<text text-anchor="start" x="177.332" y="80.0136" font-family="Times,serif" font-size="14.00">object</text>
<text text-anchor="start" x="177.332" y="95.0136" font-family="Times,serif" font-size="14.00">to_model_name</text>
<polyline fill="none" stroke="black" points="169.332,102.814 378.332,102.814 "/>
<polyline fill="none" stroke="black" points="169.332,126.814 378.332,126.814 "/>
<text text-anchor="start" x="177.332" y="142.014" font-family="Times,serif" font-size="14.00">_audit!</text>
<text text-anchor="start" x="177.332" y="157.014" font-family="Times,serif" font-size="14.00">_authenticate!</text>
<text text-anchor="start" x="177.332" y="172.014" font-family="Times,serif" font-size="14.00">_authorize!</text>
<text text-anchor="start" x="177.332" y="187.014" font-family="Times,serif" font-size="14.00">_get_plugin_name</text>
<text text-anchor="start" x="177.332" y="202.014" font-family="Times,serif" font-size="14.00">_layout</text>
<text text-anchor="start" x="177.332" y="217.014" font-family="Times,serif" font-size="14.00">user_for_paper_trail</text>
</g>
<!-- ApplicationController&#45;&gt;RailsAdmin::ApplicationController -->
<g id="edge8" class="edge"><title>ApplicationController&#45;&gt;RailsAdmin::ApplicationController</title>
<path fill="none" stroke="black" d="M60.1845,-100.532C92.8536,-71.6553 132.699,-36.4352 169.091,-4.26806"/>
</g>
<!-- RailsAdmin::MainController -->
<g id="node9" class="node"><title>RailsAdmin::MainController</title>
<path fill="none" stroke="black" d="M132.657,655.076C132.657,655.076 326.657,655.076 326.657,655.076 332.657,655.076 338.657,649.076 338.657,643.076 338.657,643.076 338.657,259.076 338.657,259.076 338.657,253.076 332.657,247.076 326.657,247.076 326.657,247.076 132.657,247.076 132.657,247.076 126.657,247.076 120.657,253.076 120.657,259.076 120.657,259.076 120.657,643.076 120.657,643.076 120.657,649.076 126.657,655.076 132.657,655.076"/>
<text text-anchor="middle" x="229.657" y="262.276" font-family="Times,serif" font-size="14.00">RailsAdmin::MainController</text>
<polyline fill="none" stroke="black" points="120.657,270.076 338.657,270.076 "/>
<text text-anchor="start" x="128.657" y="285.276" font-family="Times,serif" font-size="14.00">bulk_action</text>
<text text-anchor="start" x="128.657" y="300.276" font-family="Times,serif" font-size="14.00">bulk_delete</text>
<text text-anchor="start" x="128.657" y="315.276" font-family="Times,serif" font-size="14.00">dashboard</text>
<text text-anchor="start" x="128.657" y="330.276" font-family="Times,serif" font-size="14.00">delete</text>
<text text-anchor="start" x="128.657" y="345.276" font-family="Times,serif" font-size="14.00">edit</text>
<text text-anchor="start" x="128.657" y="360.276" font-family="Times,serif" font-size="14.00">export</text>
<text text-anchor="start" x="128.657" y="375.276" font-family="Times,serif" font-size="14.00">import</text>
<text text-anchor="start" x="128.657" y="390.276" font-family="Times,serif" font-size="14.00">index</text>
<text text-anchor="start" x="128.657" y="405.276" font-family="Times,serif" font-size="14.00">list_entries</text>
<text text-anchor="start" x="128.657" y="420.276" font-family="Times,serif" font-size="14.00">new</text>
<text text-anchor="start" x="128.657" y="435.276" font-family="Times,serif" font-size="14.00">show</text>
<text text-anchor="start" x="128.657" y="450.276" font-family="Times,serif" font-size="14.00">show_in_app</text>
<polyline fill="none" stroke="black" points="120.657,458.076 338.657,458.076 "/>
<polyline fill="none" stroke="black" points="120.657,482.076 338.657,482.076 "/>
<text text-anchor="start" x="128.657" y="497.276" font-family="Times,serif" font-size="14.00">_layout</text>
<text text-anchor="start" x="128.657" y="512.276" font-family="Times,serif" font-size="14.00">back_or_index</text>
<text text-anchor="start" x="128.657" y="527.276" font-family="Times,serif" font-size="14.00">check_for_cancel</text>
<text text-anchor="start" x="128.657" y="542.276" font-family="Times,serif" font-size="14.00">get_association_scope_from_params</text>
<text text-anchor="start" x="128.657" y="557.276" font-family="Times,serif" font-size="14.00">get_collection</text>
<text text-anchor="start" x="128.657" y="572.276" font-family="Times,serif" font-size="14.00">get_layout</text>
<text text-anchor="start" x="128.657" y="587.276" font-family="Times,serif" font-size="14.00">get_sort_hash</text>
<text text-anchor="start" x="128.657" y="602.276" font-family="Times,serif" font-size="14.00">handle_save_error</text>
<text text-anchor="start" x="128.657" y="617.276" font-family="Times,serif" font-size="14.00">redirect_to_on_success</text>
<text text-anchor="start" x="128.657" y="632.276" font-family="Times,serif" font-size="14.00">sanitize_params_for!</text>
<text text-anchor="start" x="128.657" y="647.276" font-family="Times,serif" font-size="14.00">visible_fields</text>
</g>
<!-- RailsAdmin::ApplicationController&#45;&gt;RailsAdmin::MainController -->
<g id="edge7" class="edge"><title>RailsAdmin::ApplicationController&#45;&gt;RailsAdmin::MainController</title>
<path fill="none" stroke="black" d="M257.194,224.942C256.314,232.172 255.421,239.504 254.522,246.886"/>
</g>
</g>
</svg>
