<?xml version="1.0" encoding="UTF-8" standalone="no"?>
<!DOCTYPE svg PUBLIC "-//W3C//DTD SVG 1.1//EN"
 "http://www.w3.org/Graphics/SVG/1.1/DTD/svg11.dtd">
<!-- Generated by graphviz version 2.38.0 (20140413.2041)
 -->
<!-- Title: models_diagram Pages: 1 -->
<svg width="1266pt" height="725pt"
 viewBox="0.00 0.00 1266.00 725.00" xmlns="http://www.w3.org/2000/svg" xmlns:xlink="http://www.w3.org/1999/xlink">
<g id="graph0" class="graph" transform="scale(1 1) rotate(0) translate(4 721)">
<title>models_diagram</title>
<polygon fill="none" stroke="none" points="-4,4 -4,-721 1262,-721 1262,4 -4,4"/>
<!-- _diagram_info -->
<g id="node1" class="node"><title>_diagram_info</title>
<text text-anchor="start" x="8" y="-702.6" font-family="Times,serif" font-size="13.00">Models diagram</text>
<text text-anchor="start" x="8" y="-688.6" font-family="Times,serif" font-size="13.00">Date: Jun 16 2016 &#45; 18:35</text>
<text text-anchor="start" x="8" y="-674.6" font-family="Times,serif" font-size="13.00">Migration version: 20160518101051</text>
<text text-anchor="start" x="8" y="-660.6" font-family="Times,serif" font-size="13.00">Generated by RailRoady 1.4.2</text>
<text text-anchor="start" x="8" y="-646.6" font-family="Times,serif" font-size="13.00">http://railroady.prestonlee.com</text>
</g>
<!-- Ability -->
<g id="node2" class="node"><title>Ability</title>
<polygon fill="none" stroke="black" points="192.5,-489 192.5,-535 247.5,-535 247.5,-489 192.5,-489"/>
<text text-anchor="middle" x="220" y="-519.8" font-family="Times,serif" font-size="14.00">Ability</text>
<polyline fill="none" stroke="black" points="192.5,-512 247.5,-512 "/>
<text text-anchor="middle" x="220" y="-496.8" font-family="Times,serif" font-size="14.00"> </text>
</g>
<!-- AdminAbility -->
<g id="node3" class="node"><title>AdminAbility</title>
<polygon fill="none" stroke="black" points="265.5,-489 265.5,-535 358.5,-535 358.5,-489 265.5,-489"/>
<text text-anchor="middle" x="312" y="-519.8" font-family="Times,serif" font-size="14.00">AdminAbility</text>
<polyline fill="none" stroke="black" points="265.5,-512 358.5,-512 "/>
<text text-anchor="middle" x="312" y="-496.8" font-family="Times,serif" font-size="14.00"> </text>
</g>
<!-- User -->
<g id="node4" class="node"><title>User</title>
<path fill="none" stroke="black" d="M389,-421.5C389,-421.5 609,-421.5 609,-421.5 615,-421.5 621,-427.5 621,-433.5 621,-433.5 621,-590.5 621,-590.5 621,-596.5 615,-602.5 609,-602.5 609,-602.5 389,-602.5 389,-602.5 383,-602.5 377,-596.5 377,-590.5 377,-590.5 377,-433.5 377,-433.5 377,-427.5 383,-421.5 389,-421.5"/>
<text text-anchor="middle" x="499" y="-587.3" font-family="Times,serif" font-size="14.00">User</text>
<polyline fill="none" stroke="black" points="377,-579.5 621,-579.5 "/>
<text text-anchor="start" x="385" y="-564.3" font-family="Times,serif" font-size="14.00">id :integer</text>
<text text-anchor="start" x="385" y="-549.3" font-family="Times,serif" font-size="14.00">email :character varying</text>
<text text-anchor="start" x="385" y="-534.3" font-family="Times,serif" font-size="14.00">crypted_password :character varying</text>
<text text-anchor="start" x="385" y="-519.3" font-family="Times,serif" font-size="14.00">salt :character varying</text>
<text text-anchor="start" x="385" y="-504.3" font-family="Times,serif" font-size="14.00">created_at :timestamp without time zone</text>
<text text-anchor="start" x="385" y="-489.3" font-family="Times,serif" font-size="14.00">updated_at :timestamp without time zone</text>
<text text-anchor="start" x="385" y="-474.3" font-family="Times,serif" font-size="14.00">username :character varying</text>
<text text-anchor="start" x="385" y="-459.3" font-family="Times,serif" font-size="14.00">telephone :character varying</text>
<text text-anchor="start" x="385" y="-444.3" font-family="Times,serif" font-size="14.00">role :character varying</text>
<text text-anchor="start" x="385" y="-429.3" font-family="Times,serif" font-size="14.00">name :character varying</text>
</g>
<!-- Seance -->
<g id="node5" class="node"><title>Seance</title>
<path fill="none" stroke="black" d="M876,-0.5C876,-0.5 1096,-0.5 1096,-0.5 1102,-0.5 1108,-6.5 1108,-12.5 1108,-12.5 1108,-229.5 1108,-229.5 1108,-235.5 1102,-241.5 1096,-241.5 1096,-241.5 876,-241.5 876,-241.5 870,-241.5 864,-235.5 864,-229.5 864,-229.5 864,-12.5 864,-12.5 864,-6.5 870,-0.5 876,-0.5"/>
<text text-anchor="middle" x="986" y="-226.3" font-family="Times,serif" font-size="14.00">Seance</text>
<polyline fill="none" stroke="black" points="864,-218.5 1108,-218.5 "/>
<text text-anchor="start" x="872" y="-203.3" font-family="Times,serif" font-size="14.00">id :integer</text>
<text text-anchor="start" x="872" y="-188.3" font-family="Times,serif" font-size="14.00">projection :character varying</text>
<text text-anchor="start" x="872" y="-173.3" font-family="Times,serif" font-size="14.00">caisse :character varying</text>
<text text-anchor="start" x="872" y="-158.3" font-family="Times,serif" font-size="14.00">horaire :timestamp without time zone</text>
<text text-anchor="start" x="872" y="-143.3" font-family="Times,serif" font-size="14.00">created_at :timestamp without time zone</text>
<text text-anchor="start" x="872" y="-128.3" font-family="Times,serif" font-size="14.00">updated_at :timestamp without time zone</text>
<text text-anchor="start" x="872" y="-113.3" font-family="Times,serif" font-size="14.00">commentaire :text</text>
<text text-anchor="start" x="872" y="-98.3" font-family="Times,serif" font-size="14.00">film_id :integer</text>
<text text-anchor="start" x="872" y="-83.3" font-family="Times,serif" font-size="14.00">village_id :integer</text>
<text text-anchor="start" x="872" y="-68.3" font-family="Times,serif" font-size="14.00">billets_adultes :integer</text>
<text text-anchor="start" x="872" y="-53.3" font-family="Times,serif" font-size="14.00">billets_enfants :integer</text>
<text text-anchor="start" x="872" y="-38.3" font-family="Times,serif" font-size="14.00">billets_scolaires :integer</text>
<text text-anchor="start" x="872" y="-23.3" font-family="Times,serif" font-size="14.00">version :character varying</text>
<text text-anchor="start" x="872" y="-8.3" font-family="Times,serif" font-size="14.00">statut :character varying</text>
</g>
<!-- Role -->
<g id="node6" class="node"><title>Role</title>
<path fill="none" stroke="black" d="M689,-466.5C689,-466.5 909,-466.5 909,-466.5 915,-466.5 921,-472.5 921,-478.5 921,-478.5 921,-545.5 921,-545.5 921,-551.5 915,-557.5 909,-557.5 909,-557.5 689,-557.5 689,-557.5 683,-557.5 677,-551.5 677,-545.5 677,-545.5 677,-478.5 677,-478.5 677,-472.5 683,-466.5 689,-466.5"/>
<text text-anchor="middle" x="799" y="-542.3" font-family="Times,serif" font-size="14.00">Role</text>
<polyline fill="none" stroke="black" points="677,-534.5 921,-534.5 "/>
<text text-anchor="start" x="685" y="-519.3" font-family="Times,serif" font-size="14.00">id :integer</text>
<text text-anchor="start" x="685" y="-504.3" font-family="Times,serif" font-size="14.00">name :character varying</text>
<text text-anchor="start" x="685" y="-489.3" font-family="Times,serif" font-size="14.00">created_at :timestamp without time zone</text>
<text text-anchor="start" x="685" y="-474.3" font-family="Times,serif" font-size="14.00">updated_at :timestamp without time zone</text>
</g>
<!-- Film -->
<g id="node7" class="node"><title>Film</title>
<path fill="none" stroke="black" d="M951,-459C951,-459 1171,-459 1171,-459 1177,-459 1183,-465 1183,-471 1183,-471 1183,-553 1183,-553 1183,-559 1177,-565 1171,-565 1171,-565 951,-565 951,-565 945,-565 939,-559 939,-553 939,-553 939,-471 939,-471 939,-465 945,-459 951,-459"/>
<text text-anchor="middle" x="1061" y="-549.8" font-family="Times,serif" font-size="14.00">Film</text>
<polyline fill="none" stroke="black" points="939,-542 1183,-542 "/>
<text text-anchor="start" x="947" y="-526.8" font-family="Times,serif" font-size="14.00">id :integer</text>
<text text-anchor="start" x="947" y="-511.8" font-family="Times,serif" font-size="14.00">titrefilm :character varying</text>
<text text-anchor="start" x="947" y="-496.8" font-family="Times,serif" font-size="14.00">description :character varying</text>
<text text-anchor="start" x="947" y="-481.8" font-family="Times,serif" font-size="14.00">created_at :timestamp without time zone</text>
<text text-anchor="start" x="947" y="-466.8" font-family="Times,serif" font-size="14.00">updated_at :timestamp without time zone</text>
</g>
<!-- Film&#45;&gt;Seance -->
<g id="edge6" class="edge"><title>Film&#45;&gt;Seance</title>
<path fill="none" stroke="#816895" d="M1029.44,-451.395C1019.97,-430.893 1010.61,-407.44 1005,-385 994.327,-342.345 988.989,-294.674 986.484,-251.757"/>
<ellipse fill="none" stroke="#816895" cx="1031.23" cy="-455.189" rx="4.00002" ry="4.00002"/>
<polygon fill="#816895" stroke="#816895" points="986.471,-251.518 990.428,-241.291 986.203,-246.525 985.935,-241.532 985.935,-241.532 985.935,-241.532 986.203,-246.525 981.441,-241.774 986.471,-251.518 986.471,-251.518"/>
</g>
<!-- Village -->
<g id="node8" class="node"><title>Village</title>
<path fill="none" stroke="black" d="M1026,-278.5C1026,-278.5 1246,-278.5 1246,-278.5 1252,-278.5 1258,-284.5 1258,-290.5 1258,-290.5 1258,-372.5 1258,-372.5 1258,-378.5 1252,-384.5 1246,-384.5 1246,-384.5 1026,-384.5 1026,-384.5 1020,-384.5 1014,-378.5 1014,-372.5 1014,-372.5 1014,-290.5 1014,-290.5 1014,-284.5 1020,-278.5 1026,-278.5"/>
<text text-anchor="middle" x="1136" y="-369.3" font-family="Times,serif" font-size="14.00">Village</text>
<polyline fill="none" stroke="black" points="1014,-361.5 1258,-361.5 "/>
<text text-anchor="start" x="1022" y="-346.3" font-family="Times,serif" font-size="14.00">id :integer</text>
<text text-anchor="start" x="1022" y="-331.3" font-family="Times,serif" font-size="14.00">salle :character varying</text>
<text text-anchor="start" x="1022" y="-316.3" font-family="Times,serif" font-size="14.00">created_at :timestamp without time zone</text>
<text text-anchor="start" x="1022" y="-301.3" font-family="Times,serif" font-size="14.00">updated_at :timestamp without time zone</text>
<text text-anchor="start" x="1022" y="-286.3" font-family="Times,serif" font-size="14.00">espace :character varying</text>
</g>
<!-- Film&#45;&gt;Village -->
<g id="edge7" class="edge"><title>Film&#45;&gt;Village</title>
<path fill="none" stroke="#b41520" d="M1086.77,-449.669C1094.34,-431.653 1102.62,-411.949 1110.19,-393.927"/>
<polygon fill="#b41520" stroke="#b41520" points="1086.77,-449.671 1078.75,-457.147 1084.83,-454.281 1082.89,-458.891 1082.89,-458.891 1082.89,-458.891 1084.83,-454.281 1087.04,-460.634 1086.77,-449.671 1086.77,-449.671"/>
<polygon fill="#b41520" stroke="#b41520" points="1110.2,-393.893 1118.23,-386.417 1112.14,-389.284 1114.08,-384.674 1114.08,-384.674 1114.08,-384.674 1112.14,-389.284 1109.93,-382.931 1110.2,-393.893 1110.2,-393.893"/>
</g>
<!-- Village&#45;&gt;Seance -->
<g id="edge9" class="edge"><title>Village&#45;&gt;Seance</title>
<path fill="none" stroke="#1d98a9" d="M1093.67,-271.66C1088.68,-264.722 1083.45,-257.45 1078.09,-250.007"/>
<ellipse fill="none" stroke="#1d98a9" cx="1096.2" cy="-275.177" rx="4.00002" ry="4.00002"/>
<polygon fill="#1d98a9" stroke="#1d98a9" points="1078.08,-249.989 1075.89,-239.244 1075.16,-245.931 1072.24,-241.872 1072.24,-241.872 1072.24,-241.872 1075.16,-245.931 1068.59,-244.5 1078.08,-249.989 1078.08,-249.989"/>
</g>
<!-- Object -->
<g id="node9" class="node"><title>Object</title>
<ellipse fill="none" stroke="black" cx="266" cy="-678" rx="34.394" ry="18"/>
<text text-anchor="middle" x="266" y="-674.3" font-family="Times,serif" font-size="14.00">Object</text>
</g>
<!-- Object&#45;&gt;Ability -->
<g id="edge1" class="edge"><title>Object&#45;&gt;Ability</title>
<path fill="none" stroke="black" d="M261.25,-660.067C252.872,-630.195 235.475,-568.173 226.177,-535.021"/>
</g>
<!-- Object&#45;&gt;AdminAbility -->
<g id="edge2" class="edge"><title>Object&#45;&gt;AdminAbility</title>
<path fill="none" stroke="black" d="M270.75,-660.067C279.128,-630.195 296.525,-568.173 305.823,-535.021"/>
</g>
<!-- ActiveRecord::Base -->
<g id="node10" class="node"><title>ActiveRecord::Base</title>
<ellipse fill="none" stroke="black" cx="799" cy="-678" rx="81.4863" ry="18"/>
<text text-anchor="middle" x="799" y="-674.3" font-family="Times,serif" font-size="14.00">ActiveRecord::Base</text>
</g>
<!-- ActiveRecord::Base&#45;&gt;User -->
<g id="edge3" class="edge"><title>ActiveRecord::Base&#45;&gt;User</title>
<path fill="none" stroke="black" d="M761.039,-661.915C727.251,-648.013 676.844,-626.09 635,-603 630.414,-600.469 625.781,-597.834 621.131,-595.124"/>
</g>
<!-- ActiveRecord::Base&#45;&gt;Seance -->
<g id="edge4" class="edge"><title>ActiveRecord::Base&#45;&gt;Seance</title>
<path fill="none" stroke="black" d="M750.781,-663.444C721.233,-652.369 685.775,-633.456 668,-603 627.227,-533.139 635.899,-495.246 668,-421 707.923,-328.663 791.951,-251.689 863.608,-198.974"/>
</g>
<!-- ActiveRecord::Base&#45;&gt;Role -->
<g id="edge5" class="edge"><title>ActiveRecord::Base&#45;&gt;Role</title>
<path fill="none" stroke="black" d="M799,-659.759C799,-635.745 799,-591.388 799,-557.702"/>
</g>
<!-- ActiveRecord::Base&#45;&gt;Film -->
<g id="edge8" class="edge"><title>ActiveRecord::Base&#45;&gt;Film</title>
<path fill="none" stroke="black" d="M828.828,-661.122C855.665,-646.608 895.988,-624.233 930,-603 948.959,-591.164 969.036,-577.808 987.624,-565.078"/>
</g>
<!-- ActiveRecord::Base&#45;&gt;Village -->
<g id="edge10" class="edge"><title>ActiveRecord::Base&#45;&gt;Village</title>
<path fill="none" stroke="black" d="M878.285,-673.642C981.384,-667.419 1152.94,-650.096 1192,-603 1243.63,-540.735 1214.52,-498.692 1192,-421 1188.41,-408.601 1182.5,-396.272 1175.84,-384.928"/>
</g>
</g>
</svg>
